<svg xmlns="http://www.w3.org/2000/svg" aria-hidden="true" style="position:absolute;width:0;height:0;overflow:hidden"><defs>
<symbol id="icon-untitled" viewBox="0 0 32 32"><path fill="#fff" stroke="#f3848c" stroke-width="1.333" d="M31.333 16c0 8.468-6.865 15.333-15.333 15.333S.667 24.468.667 16 7.532.667 16 .667 31.333 7.532 31.333 16z" style="fill:var(--color1, #fff);stroke:var(--color2, #f3848c)"/><path fill="#fff" d="M29.333 16c0 7.364-5.97 13.333-13.333 13.333S2.667 23.363 2.667 16C2.667 8.636 8.637 2.667 16 2.667S29.333 8.637 29.333 16z" style="fill:var(--color1, #fff)"/><path fill="none" stroke="#f3848c" stroke-linecap="round" stroke-width=".667" d="M29 16c0 7.18-5.82 13-13 13S3 23.18 3 16 8.82 3 16 3s13 5.82 13 13z" style="stroke:var(--color2, #f3848c)"/><path d="M9.333 10.953a2.857 2.857 0 0 0 2.38 2.813v4.329c0 .263.213.476.476.476h7.621a.476.476 0 0 0 .476-.476v-4.329a2.864 2.864 0 0 0 2.38-2.813 2.86 2.86 0 0 0-2.857-2.857h-1.077A3.33 3.33 0 0 0 16 6.667a3.333 3.333 0 0 0-2.732 1.429h-1.077a2.86 2.86 0 0 0-2.857 2.857zm3.334 6.191h6.667v.475h-6.667v-.475zm-.476-8.096h.616a3.3 3.3 0 0 0-.14.952.476.476 0 1 0 .952 0c0-1.313 1.068-2.381 2.381-2.381S18.381 8.687 18.381 10a.476.476 0 1 0 .952 0c0-.331-.049-.649-.14-.952h.616a1.907 1.907 0 0 1 1.347 3.25 1.903 1.903 0 0 1-1.342.56h-.006a.475.475 0 0 0-.475.475v2.86h-6.667v-2.86a.476.476 0 0 0-.476-.476h-.004a1.908 1.908 0 0 1-.003-3.808h.005zm9.046 11.429H10.762a.476.476 0 1 0 0 .952h10.475a.476.476 0 1 0 0-.952zm0 1.428H10.762a.477.477 0 1 0 0 .954h10.475a.477.477 0 1 0 0-.954zm-2.381 1.442h-5.712a.476.476 0 1 0 0 .952h5.712a.476.476 0 1 0 0-.952z" style="fill:var(--color3, #000)"/></symbol>
<symbol id="icon-close-btn" viewBox="0 0 32 32"><path d="M28.614 1.13 16 13.744 3.386 1.13a1.597 1.597 0 0 0-2.255 2.257l-.001-.001L13.738 16 1.127 28.611a1.595 1.595 0 0 0 1.747 2.616l-.01.004c.202-.089.375-.211.518-.361l.001-.001 12.618-12.611 12.614 12.614a1.597 1.597 0 0 0 2.255-2.257l.001.001-12.614-12.614L30.871 3.384a1.596 1.596 0 1 0-2.256-2.259v.003z"/></symbol>
<symbol id="icon-facebook" viewBox="0 0 16 32"><path d="M14.512.006 10.896 0c-4.064 0-6.69 3.092-6.69 7.876v3.63H.568c-.314 0-.568.294-.568.654v5.26c0 .36.254.652.568.652h3.638v13.276c0 .36.254.652.568.652H9.52c.314 0 .568-.292.568-.652V18.072h4.252c.314 0 .568-.292.568-.652l.002-5.26c0-.174-.06-.34-.166-.462a.535.535 0 0 0-.402-.192h-4.254V8.428c0-1.48.308-2.23 1.988-2.23h2.436c.314 0 .568-.294.568-.654V.66c0-.36-.254-.652-.568-.654z"/></symbol>
<symbol id="icon-Instagram" viewBox="0 0 32 32"><path d="M16.316 32h-.32l-.461.001c-2.329 0-4.64-.072-6.933-.212l.314.015c-2.066-.126-3.952-.84-5.454-2.064-1.45-1.182-2.44-2.78-2.942-4.75-.44-1.716-.46-3.4-.484-5.026C.02 18.794.004 17.41 0 16.004c.004-1.414.02-2.8.036-3.968.022-1.628.046-3.31.484-5.026.5-1.97 1.492-3.568 2.94-4.75C4.966 1.036 6.852.32 8.92.196c2.252-.138 4.57-.2 7.084-.196l.443-.001c2.335 0 4.653.071 6.952.212l-.316-.015c2.066.124 3.952.84 5.454 2.064 1.45 1.182 2.44 2.78 2.944 4.75.436 1.716.46 3.4.48 5.026.018 1.17.034 2.554.038 3.96v.006c-.004 1.408-.02 2.792-.036 3.96-.022 1.63-.046 3.312-.482 5.028-.504 1.97-1.494 3.568-2.944 4.75-1.502 1.224-3.388 1.94-5.454 2.064-1.968.125-4.268.196-6.585.196h-.193.01zm-.32-2.5.48.001c2.271 0 4.526-.069 6.763-.206l-.307.015c1.56-.096 2.916-.602 4.026-1.508 1.026-.836 1.734-1.99 2.1-3.43.364-1.428.386-2.96.406-4.444.016-1.16.032-2.534.036-3.928-.004-1.394-.02-2.768-.036-3.93-.02-1.48-.04-3.014-.406-4.44-.368-1.44-1.074-2.596-2.1-3.432-1.11-.906-2.464-1.412-4.026-1.508-1.93-.122-4.186-.191-6.457-.191l-.5.001h.026l-.485-.001c-2.269 0-4.522.069-6.756.206l.307-.015c-1.56.096-2.916.602-4.026 1.508-1.026.836-1.734 1.99-2.1 3.43-.364 1.428-.386 2.96-.406 4.442a364.21 364.21 0 0 0-.036 3.932c.004 1.39.02 2.766.036 3.926.02 1.484.04 3.016.406 4.444.366 1.44 1.074 2.594 2.1 3.43 1.11.906 2.464 1.412 4.026 1.508 2.2.134 4.468.196 6.928.19zm-.06-5.688A7.82 7.82 0 0 1 8.126 16a7.82 7.82 0 0 1 7.814-7.812A7.82 7.82 0 0 1 23.75 16a7.82 7.82 0 0 1-7.812 7.812zm0-13.124A5.32 5.32 0 0 0 10.626 16a5.32 5.32 0 0 0 5.314 5.312A5.32 5.32 0 0 0 21.25 16a5.32 5.32 0 0 0-5.312-5.312zm8.69-5-.061-.001a1.876 1.876 0 0 0 0 3.752l.064-.001h-.003a1.877 1.877 0 0 0 .003-3.75h-.003z"/></symbol>
<symbol id="icon-location" viewBox="0 0 23 32"><path d="M11.733 0c6.47 0 11.733 5.131 11.733 11.439a11.17 11.17 0 0 1-2.34 6.857l-8.67 11.379c-.021.028-.055.038-.079.064a.886.886 0 0 1-1.364-.062l-.002-.002c-2.5-3.243-7.076-9.31-8.834-11.597l-.002-.002-.011-.015a11.077 11.077 0 0 1-2.165-6.607v-.016.001C-.001 5.131 5.262 0 11.732 0zm0 17.609c3.484 0 6.33-2.773 6.33-6.17s-2.846-6.172-6.33-6.172-6.33 2.773-6.33 6.172c0 3.394 2.846 6.17 6.33 6.17z"/></symbol>
<symbol id="icon-menu-btn" viewBox="0 0 60 32"><path d="M2 0h56a2 2 0 1 1 0 4H2a2 2 0 1 1 0-4zM2 14h56a2 2 0 1 1 0 4H2a2 2 0 1 1 0-4zM2 28h56a2 2 0 1 1 0 4H2a2 2 0 1 1 0-4z"/></symbol>
<symbol id="icon-phone" viewBox="0 0 32 32"><path d="M29.43 20.473h-.034a18.56 18.56 0 0 1-5.804-.924l.131.037c-.894-.295-1.991-.025-2.535.522l-3.599 2.649c-4.172-2.171-6.742-4.677-8.938-8.714l2.634-3.414a2.48 2.48 0 0 0 .638-2.555c-.577-1.654-.911-3.56-.911-5.544v-.028.001C11.01 1.125 9.855 0 8.442 0H2.566C1.151 0-.001 1.122-.001 2.503c0 15.818 13.201 28.689 29.43 28.689 1.415 0 2.567-1.125 2.567-2.503v-5.711c0-1.381-1.152-2.506-2.567-2.506z"/></symbol>
<symbol id="icon-Star--empty" viewBox="0 0 34 32"><path fill="none" stroke="#edd501" stroke-width="1.684" d="M15.901 3.05a.844.844 0 0 1 1.6-.006l.002.006 2.509 7.725a2.532 2.532 0 0 0 2.403 1.747h8.125a.842.842 0 0 1 .497 1.521l-.002.002-6.572 4.776a2.527 2.527 0 0 0-.912 2.842l-.005-.018 2.509 7.725a.842.842 0 0 1-1.3.94l.002.002-6.572-4.775c-.411-.301-.927-.482-1.485-.482s-1.074.181-1.492.487l.007-.005-6.572 4.775a.842.842 0 0 1-1.295-.947l-.002.006 2.509-7.725a2.524 2.524 0 0 0-.909-2.82l-.007-.005-6.572-4.776a.841.841 0 0 1 .495-1.522h8.123a2.527 2.527 0 0 0 2.398-1.729l.005-.018 2.509-7.725z" style="stroke:var(--color4, #edd501)"/></symbol>
<symbol id="icon-Star-filled" viewBox="0 0 34 32"><path fill="#edd501" d="M15.591 2.791c.505-1.553 2.7-1.553 3.203 0l2.511 7.725c.227.68.858 1.162 1.601 1.162h8.123c1.634 0 2.311 2.088.99 3.048l-6.572 4.775a1.683 1.683 0 0 0-.608 1.895l-.003-.012 2.509 7.727c.505 1.549-1.272 2.841-2.592 1.883l-6.572-4.776c-.274-.201-.618-.321-.989-.321s-.716.12-.994.325l.005-.003-6.573 4.776c-1.319.958-3.096-.332-2.592-1.883l2.511-7.727a1.682 1.682 0 0 0-.607-1.88l-.005-.003-6.573-4.775c-1.319-.96-.64-3.048.99-3.048h8.125a1.687 1.687 0 0 0 1.597-1.15l.003-.012 2.511-7.725z" style="fill:var(--color4, #edd501)"/></symbol>
<symbol id="icon-Twitter" viewBox="0 0 32 32"><path d="M32 5.44c-1.097.551-2.37.957-3.712 1.152l-.068.008c1.36-.908 2.398-2.336 2.886-4.054a12.155 12.155 0 0 1-4.077 1.758l-.083.016C25.742 2.888 24.026 2 22.154 2c-3.632 0-6.556 3.296-6.556 7.336 0 .58.044 1.14.152 1.672-5.454-.298-10.28-3.22-13.522-7.672a7.953 7.953 0 0 0-.898 3.697v.011-.001c0 2.54 1.17 4.79 2.914 6.094a5.942 5.942 0 0 1-2.988-.918l.024.014v.08c0 3.566 2.274 6.526 5.256 7.208a5.94 5.94 0 0 1-1.72.24c-.42 0-.844-.026-1.242-.124.85 2.904 3.262 5.04 6.13 5.108-2.232 1.952-5.066 3.128-8.134 3.128-.538 0-1.054-.028-1.57-.1 2.906 2.094 6.35 3.29 10.064 3.29 12.072 0 18.672-11.18 18.672-20.868 0-.324-.01-.638-.024-.948a14.157 14.157 0 0 0 3.253-3.744L32 5.439z"/></symbol>
<symbol id="icon-rate-empty" viewBox="0 0 173 32">
<path fill="#edd501" style="fill: var(--color1, #edd501)" d="M14.249 4.681c0.384-1.18 2.052-1.18 2.435 0l1.908 5.871c0.172 0.517 0.652 0.883 1.217 0.883 0 0 0 0 0 0h6.173c1.242 0 1.756 1.587 0.753 2.317l-4.995 3.629c-0.321 0.235-0.527 0.611-0.527 1.035 0 0.141 0.023 0.278 0.065 0.405l-0.003-0.009 1.907 5.873c0.384 1.178-0.966 2.159-1.97 1.431l-4.995-3.63c-0.208-0.153-0.469-0.244-0.752-0.244s-0.544 0.092-0.756 0.247l0.004-0.003-4.996 3.63c-1.002 0.728-2.353-0.252-1.97-1.431l1.908-5.873c0.040-0.118 0.063-0.254 0.063-0.396 0-0.424-0.206-0.8-0.524-1.033l-0.004-0.003-4.996-3.629c-1.002-0.73-0.486-2.317 0.753-2.317h6.175c0.565-0 1.044-0.366 1.213-0.874l0.003-0.009 1.908-5.871z"></path>
<path fill="none" stroke="#edd501" style="stroke: var(--color1, #edd501)" stroke-linejoin="miter" stroke-linecap="butt" stroke-miterlimit="4" stroke-width="1.28" d="M157.942 4.878l1.908 5.871c0.258 0.777 0.977 1.327 1.825 1.327h6.175c0.353 0 0.639 0.287 0.639 0.64 0 0.212-0.103 0.399-0.261 0.516l-0.002 0.001-4.996 3.63c-0.481 0.353-0.791 0.917-0.791 1.553 0 0.212 0.034 0.417 0.098 0.608l-0.004-0.014 1.907 5.871c0.020 0.059 0.031 0.127 0.031 0.197 0 0.353-0.287 0.64-0.64 0.64-0.141 0-0.272-0.046-0.377-0.123l0.002 0.001-4.996-3.629c-0.312-0.229-0.704-0.367-1.128-0.367s-0.816 0.137-1.134 0.37l0.005-0.004-4.995 3.629c-0.104 0.077-0.235 0.123-0.377 0.123-0.353 0-0.64-0.287-0.64-0.64 0-0.071 0.012-0.139 0.033-0.203l-0.001 0.005 1.908-5.871c0.060-0.177 0.094-0.381 0.094-0.593 0-0.636-0.31-1.2-0.786-1.55l-0.005-0.004-4.995-3.63c-0.16-0.118-0.263-0.305-0.263-0.517 0-0.353 0.286-0.64 0.639-0.64h6.173c0 0 0 0 0 0 0.849 0 1.569-0.55 1.822-1.314l0.004-0.014 1.907-5.871c0.086-0.259 0.326-0.442 0.609-0.442s0.523 0.183 0.607 0.438l0.001 0.005z"></path>
<path fill="#edd501" style="fill: var(--color1, #edd501)" d="M120.649 4.681c0.384-1.18 2.052-1.18 2.435 0l1.908 5.871c0.172 0.517 0.652 0.883 1.217 0.883 0 0 0 0 0 0h6.173c1.24 0 1.756 1.587 0.753 2.317l-4.995 3.629c-0.321 0.235-0.527 0.611-0.527 1.035 0 0.141 0.023 0.278 0.065 0.405l-0.003-0.009 1.907 5.873c0.384 1.178-0.966 2.159-1.97 1.431l-4.995-3.63c-0.208-0.153-0.469-0.244-0.752-0.244s-0.544 0.092-0.756 0.247l0.004-0.003-4.996 3.63c-1.002 0.728-2.353-0.252-1.969-1.431l1.907-5.873c0.040-0.118 0.063-0.254 0.063-0.396 0-0.424-0.206-0.8-0.524-1.033l-0.004-0.003-4.996-3.629c-1.002-0.73-0.486-2.317 0.753-2.317h6.175c0.565-0 1.044-0.366 1.213-0.874l0.003-0.009 1.908-5.871zM85.183 4.681c0.384-1.18 2.052-1.18 2.435 0l1.907 5.871c0.172 0.517 0.652 0.883 1.217 0.883 0.001 0 0.001 0 0.002 0h6.173c1.24 0 1.756 1.587 0.753 2.317l-4.995 3.629c-0.322 0.235-0.528 0.612-0.528 1.036 0 0.141 0.023 0.277 0.065 0.404l-0.003-0.009 1.907 5.873c0.384 1.178-0.965 2.159-1.969 1.431l-4.995-3.63c-0.208-0.153-0.47-0.245-0.753-0.245s-0.544 0.092-0.756 0.247l0.004-0.003-4.995 3.63c-1.004 0.728-2.353-0.252-1.97-1.431l1.907-5.873c0.040-0.118 0.063-0.254 0.063-0.396 0-0.424-0.206-0.8-0.524-1.033l-0.004-0.003-4.995-3.629c-1.004-0.73-0.486-2.317 0.753-2.317h6.173c0 0 0 0 0 0 0.565 0 1.045-0.366 1.214-0.874l0.003-0.009 1.907-5.871zM49.715 4.681c0.384-1.18 2.052-1.18 2.436 0l1.907 5.871c0.172 0.517 0.652 0.883 1.217 0.883 0 0 0 0 0 0h6.175c1.24 0 1.755 1.587 0.753 2.317l-4.996 3.629c-0.321 0.235-0.527 0.611-0.527 1.035 0 0.141 0.023 0.278 0.065 0.405l-0.003-0.009 1.907 5.873c0.384 1.178-0.966 2.159-1.969 1.431l-4.995-3.63c-0.208-0.153-0.47-0.245-0.753-0.245s-0.544 0.092-0.756 0.247l0.004-0.003-4.995 3.63c-1.004 0.728-2.353-0.252-1.971-1.431l1.908-5.873c0.040-0.118 0.063-0.254 0.063-0.396 0-0.424-0.206-0.8-0.524-1.033l-0.004-0.003-4.995-3.629c-1.004-0.73-0.488-2.317 0.753-2.317h6.173c0 0 0 0 0 0 0.565 0 1.045-0.366 1.214-0.874l0.003-0.009 1.907-5.871z"></path>
</symbol>
<symbol id="icon-rate-filled" viewBox="0 0 181 32">
<path fill="#edd501" style="fill: var(--color1, #edd501)" d="M14.732 3.903c0.4-1.228 2.137-1.228 2.536 0l2.025 6.232c0.179 0.538 0.678 0.92 1.267 0.92h6.553c1.292 0 1.828 1.653 0.784 2.413l-5.301 3.851c-0.335 0.245-0.549 0.637-0.549 1.078 0 0.147 0.024 0.289 0.068 0.422l-0.003-0.009 2.024 6.232c0.4 1.229-1.007 2.251-2.051 1.491l-5.301-3.851c-0.217-0.159-0.489-0.255-0.784-0.255s-0.567 0.096-0.788 0.257l0.004-0.003-5.301 3.851c-1.044 0.76-2.451-0.263-2.051-1.491l2.024-6.232c0.041-0.123 0.065-0.265 0.065-0.412 0-0.442-0.215-0.833-0.546-1.076l-0.004-0.003-5.301-3.851c-1.044-0.76-0.507-2.413 0.784-2.413h6.552c0 0 0 0 0 0 0.589 0 1.088-0.381 1.265-0.911l0.003-0.009 2.025-6.232zM164.065 3.903c0.399-1.228 2.137-1.228 2.536 0l2.025 6.232c0.179 0.539 0.679 0.92 1.268 0.92 0 0 0 0 0 0h6.552c1.292 0 1.828 1.653 0.784 2.413l-5.301 3.851c-0.335 0.245-0.549 0.637-0.549 1.078 0 0.147 0.024 0.289 0.068 0.422l-0.003-0.009 2.024 6.232c0.4 1.229-1.007 2.251-2.051 1.491l-5.301-3.851c-0.217-0.159-0.489-0.255-0.784-0.255s-0.567 0.096-0.788 0.257l0.004-0.003-5.301 3.851c-1.044 0.76-2.451-0.263-2.051-1.491l2.024-6.232c0.041-0.123 0.065-0.265 0.065-0.412 0-0.442-0.215-0.833-0.546-1.076l-0.004-0.003-5.301-3.851c-1.044-0.76-0.508-2.413 0.784-2.413h6.552c0 0 0 0 0 0 0.589 0 1.088-0.381 1.265-0.911l0.003-0.009 2.025-6.232zM126.732 3.903c0.4-1.228 2.137-1.228 2.536 0l2.025 6.232c0.179 0.538 0.678 0.92 1.267 0.92h6.553c1.292 0 1.828 1.653 0.784 2.413l-5.301 3.851c-0.335 0.245-0.549 0.637-0.549 1.078 0 0.147 0.024 0.289 0.068 0.422l-0.003-0.009 2.024 6.232c0.4 1.229-1.007 2.251-2.051 1.491l-5.301-3.851c-0.217-0.159-0.489-0.255-0.784-0.255s-0.567 0.096-0.788 0.257l0.004-0.003-5.301 3.851c-1.044 0.76-2.451-0.263-2.051-1.491l2.024-6.232c0.041-0.123 0.065-0.265 0.065-0.412 0-0.442-0.215-0.833-0.546-1.076l-0.004-0.003-5.301-3.851c-1.045-0.76-0.507-2.413 0.784-2.413h6.552c0 0 0 0 0 0 0.589 0 1.088-0.381 1.265-0.911l0.003-0.009 2.025-6.232zM89.399 3.903c0.4-1.228 2.137-1.228 2.536 0l2.025 6.232c0.179 0.538 0.678 0.92 1.267 0.92h6.553c1.292 0 1.829 1.653 0.784 2.413l-5.301 3.851c-0.335 0.245-0.549 0.637-0.549 1.078 0 0.147 0.024 0.289 0.068 0.422l-0.003-0.009 2.024 6.232c0.4 1.229-1.007 2.251-2.051 1.491l-5.301-3.851c-0.217-0.159-0.489-0.255-0.784-0.255s-0.567 0.096-0.788 0.257l0.004-0.003-5.301 3.851c-1.044 0.76-2.451-0.263-2.051-1.491l2.024-6.232c0.041-0.123 0.065-0.265 0.065-0.412 0-0.442-0.215-0.833-0.546-1.076l-0.004-0.003-5.301-3.851c-1.044-0.76-0.507-2.413 0.784-2.413h6.552c0 0 0 0 0 0 0.589 0 1.088-0.381 1.265-0.911l0.003-0.009 2.025-6.232zM52.065 3.903c0.4-1.228 2.137-1.228 2.536 0l2.025 6.232c0.179 0.538 0.678 0.92 1.267 0.92h6.553c1.292 0 1.828 1.653 0.784 2.413l-5.301 3.851c-0.335 0.245-0.549 0.637-0.549 1.078 0 0.147 0.024 0.289 0.068 0.422l-0.003-0.009 2.024 6.232c0.4 1.229-1.007 2.251-2.051 1.491l-5.301-3.851c-0.217-0.159-0.489-0.255-0.784-0.255s-0.567 0.096-0.788 0.257l0.004-0.003-5.3 3.851c-1.045 0.76-2.452-0.263-2.053-1.491l2.027-6.232c0.041-0.123 0.065-0.264 0.065-0.411 0-0.442-0.215-0.834-0.547-1.077l-0.004-0.003-5.301-3.851c-1.045-0.76-0.507-2.413 0.784-2.413h6.552c0 0 0 0 0 0 0.589 0 1.088-0.381 1.265-0.911l0.003-0.009 2.025-6.232z"></path>
</symbol></defs></svg>